<?xml version="1.0" encoding="UTF-8" standalone="no"?>
<svg
   xmlns:dc="http://purl.org/dc/elements/1.1/"
   xmlns:cc="http://creativecommons.org/ns#"
   xmlns:rdf="http://www.w3.org/1999/02/22-rdf-syntax-ns#"
   xmlns:svg="http://www.w3.org/2000/svg"
   xmlns="http://www.w3.org/2000/svg"
   xmlns:sodipodi="http://sodipodi.sourceforge.net/DTD/sodipodi-0.dtd"
   xmlns:inkscape="http://www.inkscape.org/namespaces/inkscape"
   width="512pt"
   height="512pt"
   viewBox="0 0 512 512"
   version="1.1"
   id="svg2"
   inkscape:version="0.91 r13725"
   sodipodi:docname="timer.svg">
  <metadata
     id="metadata20">
    <rdf:RDF>
      <cc:Work
         rdf:about="">
        <dc:format>image/svg+xml</dc:format>
        <dc:type
           rdf:resource="http://purl.org/dc/dcmitype/StillImage" />
      </cc:Work>
    </rdf:RDF>
  </metadata>
  <defs
     id="defs18" />
  <sodipodi:namedview
     pagecolor="#ffffff"
     bordercolor="#666666"
     borderopacity="1"
     objecttolerance="10"
     gridtolerance="10"
     guidetolerance="10"
     inkscape:pageopacity="0"
     inkscape:pageshadow="2"
     inkscape:window-width="1773"
     inkscape:window-height="1057"
     id="namedview16"
     showgrid="false"
     inkscape:zoom="0.36875"
     inkscape:cx="66.440678"
     inkscape:cy="320"
     inkscape:window-x="139"
     inkscape:window-y="-8"
     inkscape:window-maximized="1"
     inkscape:current-layer="svg2" />
  <path
     fill="#8affff"
     d=" M 131.37 120.91 C 131.59 111.68 139.67 103.58 148.90 103.38 C 154.51 103.46 160.54 102.51 165.65 105.43 C 171.55 108.06 174.98 114.25 175.37 120.55 C 175.98 130.14 175.43 139.77 175.62 149.38 C 229.21 149.39 282.80 149.39 336.39 149.38 C 336.17 142.29 336.28 134.07 341.83 128.82 C 347.66 122.76 356.72 122.86 364.48 123.62 C 370.66 124.34 376.51 128.17 378.90 134.04 C 381.41 138.78 380.50 144.25 380.60 149.38 C 401.43 149.39 422.25 149.39 443.07 149.38 C 462.77 151.62 479.91 168.95 481.23 188.85 C 481.86 192.55 481.61 196.31 481.61 200.04 C 481.62 251.70 481.62 303.36 481.61 355.01 C 481.51 360.30 482.05 365.64 480.97 370.86 C 479.58 381.37 474.07 391.15 465.90 397.89 C 458.18 405.23 447.39 408.14 436.99 408.64 C 316.31 408.60 195.62 408.61 74.94 408.63 C 65.49 408.16 55.83 405.80 48.38 399.67 C 37.58 392.01 31.06 379.21 30.36 366.08 C 30.40 309.73 30.39 253.39 30.37 197.05 C 29.95 190.02 31.38 183.00 33.62 176.37 C 38.14 166.94 45.26 158.49 54.70 153.72 C 60.40 151.06 66.63 148.88 73.00 149.35 C 92.46 149.43 111.92 149.37 131.38 149.38 C 131.40 139.89 131.37 130.40 131.37 120.91 Z"
     id="path6" />
  <path
     fill="#ffffff"
     d=" M 142.20 201.12 C 167.19 197.57 193.39 207.00 210.72 225.28 C 216.49 232.42 222.43 239.79 225.45 248.58 C 232.28 264.05 232.99 281.71 229.29 298.06 C 226.56 308.81 221.22 318.69 214.55 327.48 C 202.53 342.49 184.84 352.66 165.95 356.03 C 162.63 356.50 159.24 356.22 155.96 356.99 C 152.66 357.93 149.41 356.29 146.09 356.40 C 135.34 356.14 125.24 351.88 115.72 347.24 C 92.43 334.50 76.28 309.27 75.31 282.67 C 73.93 278.44 75.65 274.22 75.71 269.95 C 77.08 256.17 82.46 242.89 90.76 231.82 C 102.81 215.12 121.98 204.32 142.20 201.12 Z"
     id="path8" />
  <path
     fill="#ffffff"
     d=" M 348.19 201.14 C 367.18 198.55 387.05 203.20 402.85 214.13 C 420.35 225.92 432.58 245.33 435.85 266.16 C 436.17 271.87 438.29 277.55 436.60 283.22 C 436.56 294.62 432.59 305.51 427.68 315.64 C 421.60 326.71 412.81 336.25 402.46 343.47 C 390.50 351.15 376.57 356.62 362.20 356.60 C 357.44 357.97 352.67 356.12 347.86 356.09 C 325.93 353.19 305.37 340.29 293.37 321.68 C 279.75 301.36 276.55 274.42 285.42 251.58 C 289.08 241.15 295.37 231.86 302.72 223.68 C 315.08 211.74 331.12 203.54 348.19 201.14 Z"
     id="path10" />
  <path
     fill="#8affff"
     d=" M 150.96 218.26 C 152.71 218.34 154.47 218.37 156.23 218.45 C 156.95 220.16 157.67 221.90 158.16 223.71 C 162.02 243.10 167.04 262.30 169.63 281.93 C 171.15 291.63 161.61 301.08 151.94 299.67 C 143.32 299.74 136.89 291.67 136.68 283.47 C 139.84 262.75 144.65 242.35 149.03 221.88 C 149.40 220.54 150.26 219.43 150.96 218.26 Z"
     id="path12" />
  <path
     fill="#8affff"
     d=" M 395.17 237.11 C 396.25 236.57 397.46 236.40 398.62 236.12 C 399.71 237.20 400.80 238.30 401.89 239.40 C 401.45 242.06 400.30 244.52 398.74 246.71 C 392.56 255.96 387.27 265.76 380.92 274.90 C 376.17 282.37 371.77 290.18 365.77 296.74 C 361.72 301.17 355.23 301.31 349.76 300.22 C 344.22 297.91 339.27 292.95 338.46 286.80 C 337.54 280.63 340.54 274.12 345.77 270.74 C 350.96 266.56 356.37 262.68 362.03 259.13 C 372.79 251.37 383.90 244.10 395.17 237.11 Z"
     id="path14" />
</svg>
